<svg width="810" height="849" viewBox="0 0 810 849" fill="none" xmlns="http://www.w3.org/2000/svg">
<path fill-rule="evenodd" clip-rule="evenodd" d="M4.41057 6.88876C8.35771 1.5524 15.1608 0 25.4495 0H303.64C304.852 0 305.834 1.11929 305.834 2.5C305.834 3.88071 304.852 5 303.64 5H25.4495C15.1153 5 10.2906 6.69754 7.76566 10.1111C6.48963 11.8363 5.62071 14.2337 5.08857 17.6967C4.5542 21.1742 4.38787 25.5236 4.38787 30.9999V551C4.38787 556.817 4.39203 561.004 4.74066 564.139C5.08707 567.253 5.72868 568.822 6.6463 569.791C7.60424 570.801 9.245 571.566 12.45 572.002C15.6284 572.434 19.9352 572.5 25.8883 572.5H785.428C791.263 572.5 795.824 573.64 799.362 575.695C802.929 577.767 805.341 580.705 806.937 584.058C810.002 590.494 810.001 598.406 810 604.242V604.5C810 609.791 809.83 643.96 809.64 682.206L809.561 697.952C809.342 742.146 809.122 787.259 809.122 797C809.122 806.721 808.498 815.619 805.142 822.085C801.611 828.889 795.369 832.5 785.428 832.5H666.987L677.204 844.142C678.06 845.118 678.06 846.701 677.204 847.678C676.347 848.654 674.958 848.654 674.101 847.678L660.139 831.768C659.282 830.791 659.282 829.208 660.139 828.232L674.101 812.322C674.958 811.346 676.347 811.346 677.204 812.322C678.06 813.299 678.06 814.881 677.204 815.858L666.987 827.5H785.428C794.354 827.5 798.863 824.361 801.365 819.54C804.043 814.381 804.735 806.778 804.735 797C804.735 787.241 804.954 742.104 805.173 697.923L805.253 681.856C805.443 643.732 805.612 609.76 805.612 604.5C805.612 598.359 805.565 591.661 803.08 586.442C801.88 583.92 800.096 581.733 797.369 580.149C794.613 578.548 790.782 577.5 785.428 577.5H25.8883C19.9942 577.5 15.4155 577.441 11.9299 576.967C8.47085 576.496 5.66892 575.574 3.66508 573.459C1.62092 571.302 0.781651 568.309 0.387627 564.767C-7.69198e-05 561.282 -4.2398e-05 556.778 9.12556e-07 551.178L1.74948e-06 30.9999C1.74948e-06 25.4762 0.162742 20.7631 0.766461 16.8343C1.3724 12.8911 2.45057 9.5386 4.41057 6.88876Z" fill="#716F6F"/>
</svg>
