<svg width="77" height="147" viewBox="0 0 77 147" fill="none" xmlns="http://www.w3.org/2000/svg">
<path d="M14.1555 21.7143V35.8982C14.0524 39.5345 14.7229 42.2681 16.1413 44.0991C17.5597 45.9301 20.2675 46.8327 24.2648 46.8327C25.219 46.8327 26.2505 46.7554 27.411 46.6006C28.5715 46.4459 29.5515 46.188 30.4025 45.8012V39.3024C29.8868 39.6634 29.242 39.8955 28.4426 40.0502C27.6689 40.205 26.921 40.2823 26.1989 40.2823C24.5227 40.2566 23.388 39.8181 22.769 38.9155C22.1501 38.0387 21.8664 36.8008 21.8922 35.2535V21.7143H30.4025V15.1381H21.8922V6.16357H14.1555V15.1381H7.78564V21.7143H14.1555Z" fill="white"/>
<path d="M32.9299 4.64201C32.9557 5.90567 33.4199 6.9888 34.2967 7.89141C35.1993 8.79403 36.3598 9.25823 37.804 9.28402C39.2482 9.25823 40.4344 8.81982 41.3886 7.94299C42.317 7.09196 42.807 5.98303 42.8328 4.64201C42.807 3.30098 42.317 2.19206 41.3886 1.34102C40.4602 0.489989 39.2482 0.0257889 37.804 0C36.3598 0.0515779 35.1993 0.515777 34.2967 1.3926C33.4199 2.29521 32.9557 3.37835 32.9299 4.64201Z" fill="white"/>
<path d="M41.7497 15.1639H34.0388V46.1107H41.7497V15.1639Z" fill="white"/>
<path d="M14.0524 79.8168H21.789V63.2603C21.7633 62.6414 21.9438 61.713 22.3306 60.5009C22.7175 59.2888 23.5169 58.1541 24.729 57.1226C25.9153 56.091 27.7205 55.5494 30.1189 55.4721C30.7378 55.4721 31.3567 55.5237 31.9757 55.6268C32.5946 55.73 33.2393 55.8847 33.8583 56.0394V48.5606C33.4199 48.4317 32.9557 48.3285 32.4915 48.2254C32.053 48.148 31.5631 48.0964 31.0731 48.0964C29.01 48.1222 27.2047 48.6122 25.6058 49.618C24.0069 50.598 22.7948 51.9906 21.918 53.7958H21.789V48.8959H14.0524V79.8168Z" fill="white"/>
<path d="M53.9736 67.696C53.9736 69.8881 53.3289 71.5902 52.0395 72.8538C50.75 74.1175 48.7901 74.7622 46.1596 74.788C44.8444 74.788 43.6065 74.4785 42.5233 73.808C41.4144 73.1633 40.8213 72.1317 40.7439 70.7133C40.7955 69.2434 41.4918 68.186 42.807 67.4897C44.1223 66.7934 45.6696 66.3808 47.449 66.1745C49.2285 65.994 50.8532 65.8908 52.3489 65.9166H53.9736V67.696ZM54.4378 79.8168H61.4008V62.0225C61.4782 60.4751 61.3235 58.6183 60.9109 56.4521C60.4982 54.2858 59.3635 52.4032 57.4809 50.7269C55.5983 49.0506 52.5037 48.1738 48.1969 48.0964C45.7212 48.0964 43.3228 48.4833 41.0534 49.2827C38.784 50.0822 36.7724 51.3458 35.0446 53.0737L39.0934 57.1484C40.125 56.1684 41.3628 55.3947 42.7812 54.8016C44.1996 54.2084 45.7212 53.9247 47.3459 53.9247C49.4348 53.9247 51.1368 54.4147 52.4521 55.3947C53.7415 56.3747 54.412 57.8189 54.4636 59.7272V60.5783H52.5037C49.8216 60.5267 46.9848 60.7072 44.0191 61.1456C41.0276 61.5583 38.5003 62.564 36.3598 64.0856C34.2451 65.6329 33.1362 68.0571 33.033 71.3323C33.0588 73.3696 33.6004 75.0717 34.6835 76.4643C35.7409 77.8311 37.1335 78.8884 38.8355 79.5589C40.5376 80.2552 42.3686 80.5905 44.3028 80.5905C46.3917 80.5905 48.2743 80.2037 50.0021 79.3784C51.7042 78.579 53.1226 77.2895 54.2315 75.5617H54.4378V79.8168Z" fill="white"/>
<path d="M14.0266 113.033H21.7633V96.1411C21.7375 94.0007 22.2791 92.1696 23.4138 90.6481C24.5227 89.1265 26.3537 88.3271 28.881 88.2755C30.7378 88.3013 32.0789 88.8687 32.9299 90.0034C33.7809 91.1381 34.1936 92.6596 34.1678 94.5938V113.033H41.9045V96.2701C41.8787 94.1812 42.3687 92.3502 43.4002 90.777C44.4318 89.2039 46.1338 88.3529 48.5322 88.2755C50.7759 88.3271 52.2974 89.0492 53.1226 90.4418C53.9221 91.8086 54.3347 93.5107 54.2574 95.4964V113.033H61.994V94.5938C62.0456 90.8028 61.2204 87.6566 59.5183 85.1808C57.8162 82.7051 54.9279 81.4157 50.8532 81.3125C48.5322 81.3125 46.5465 81.7767 44.8702 82.7051C43.1939 83.6335 41.8013 85.0777 40.6666 87.0376C39.8671 85.1035 38.6293 83.6593 37.0046 82.7309C35.3799 81.7767 33.3683 81.3125 30.9957 81.3125C28.4168 81.3641 26.3795 81.9314 24.8322 83.0404C23.2848 84.1235 22.1759 85.4129 21.5312 86.9345H21.4022V82.112H14.0524V113.033H14.0266Z" fill="white"/>
<path d="M66.9713 71.5643C66.9971 72.8279 67.4613 73.911 68.3639 74.8137C69.2407 75.7163 70.427 76.1805 71.8712 76.2063C73.3154 76.1805 74.5017 75.7421 75.4559 74.8652C76.3843 74.0142 76.8743 72.9053 76.9001 71.5643C76.8743 70.2232 76.3843 69.1143 75.4559 68.2633C74.5275 67.4122 73.3412 66.9738 71.8712 66.9222C70.427 66.9738 69.2665 67.438 68.3639 68.3149C67.4613 69.2433 66.9971 70.3006 66.9713 71.5643Z" fill="white"/>
<path d="M75.7911 82.0862H68.0544V113.033H75.7911V82.0862Z" fill="white"/>
<path d="M35.6893 118.939C34.3998 117.262 32.7493 116.05 30.7894 115.302C28.8294 114.58 26.7921 114.219 24.6774 114.219C22.5369 114.219 20.5512 114.58 18.6686 115.277C16.786 115.973 15.2644 117.082 14.0524 118.552C12.8661 120.022 12.2471 121.93 12.2213 124.225C12.3245 127.088 13.1755 129.151 14.826 130.363C16.4765 131.575 18.3849 132.4 20.577 132.839C22.7432 133.277 24.6774 133.767 26.3279 134.283C27.9784 134.825 28.8552 135.856 28.9326 137.378C28.8552 138.59 28.2878 139.492 27.2047 140.06C26.1216 140.627 24.9869 140.911 23.7748 140.911C22.1501 140.885 20.7833 140.524 19.6228 139.828C18.4623 139.131 17.4049 138.229 16.4249 137.094L11.2672 141.917C12.8403 143.67 14.6713 144.908 16.6828 145.63C18.7202 146.352 20.938 146.713 23.3106 146.688C25.4511 146.713 27.54 146.378 29.5773 145.759C31.5888 145.114 33.2651 144.083 34.6061 142.613C35.9214 141.169 36.6177 139.209 36.6435 136.785C36.5661 133.845 35.6893 131.73 34.0388 130.44C32.3883 129.151 30.4799 128.274 28.3136 127.81C26.1474 127.346 24.2132 126.882 22.5627 126.392C20.9122 125.902 20.0354 125.025 19.958 123.684C20.0096 122.523 20.4996 121.698 21.4538 121.156C22.3822 120.641 23.3879 120.357 24.4969 120.383C25.8121 120.383 26.9726 120.666 27.9784 121.182C28.9584 121.724 29.8352 122.497 30.5831 123.555L35.6893 118.939Z" fill="white"/>
<path d="M68.3639 115.019H60.6272V131.91C60.653 134.051 60.1114 135.882 58.9767 137.403C57.8678 138.925 56.0367 139.724 53.5094 139.802C51.73 139.75 50.4405 139.209 49.6153 138.203C48.8158 137.197 48.3001 135.985 48.0938 134.592C47.8874 133.2 47.7843 131.91 47.8359 130.724V115.044H40.0992V134.567C40.0992 136.707 40.4602 138.693 41.1823 140.524C41.9044 142.355 43.1165 143.851 44.767 144.985C46.4175 146.12 48.6353 146.713 51.3947 146.739C53.9478 146.687 56.011 146.12 57.5325 145.037C59.0541 143.954 60.163 142.613 60.8593 141.014H60.9882V145.965H68.3381V115.019H68.3639Z" fill="white"/>
<path d="M50.2601 124.251H56.3205L65.3982 114.993H56.6557L50.2601 124.251Z" fill="#EA8215"/>
<path d="M2.47315 27.5942H6.93464L2.47315 31.1789V31.8752H8.45618V31.0241H3.9947L8.45618 27.4395V26.7432H2.47315V27.5942ZM7.75988 38.1419C7.75988 39.4829 6.77991 40.4629 5.46467 40.4629C4.14943 40.4629 3.16945 39.4829 3.16945 38.1419C3.16945 36.8266 4.14943 35.8209 5.46467 35.8209C6.77991 35.8209 7.75988 36.8009 7.75988 38.1419ZM8.53355 38.1419C8.53355 36.3367 7.2441 34.9698 5.49046 34.9698C3.73681 34.9698 2.44736 36.3109 2.44736 38.1419C2.44736 39.9729 3.7626 41.3139 5.49046 41.3139C7.21832 41.3139 8.53355 39.9729 8.53355 38.1419ZM2.00895 38.7608V37.9871L0.900024 36.543V37.5745L2.00895 38.7608ZM8.45618 44.4086H2.47315V45.2596H8.45618V44.4086ZM8.53355 50.6237C8.53355 49.0506 7.75988 48.3027 6.83148 48.3027C4.63942 48.3027 5.54204 51.9132 4.09786 51.9132C3.58208 51.9132 3.14367 51.4748 3.14367 50.469C3.14367 49.9274 3.2984 49.3601 3.63365 48.8185L2.96314 48.5348C2.62788 49.0248 2.42157 49.7469 2.42157 50.4432C2.42157 52.0163 3.19524 52.7384 4.12364 52.7384C6.34149 52.7384 5.41309 49.128 6.88306 49.128C7.39884 49.128 7.81146 49.5664 7.81146 50.5979C7.81146 51.3716 7.52778 52.1195 7.11516 52.5579L7.78567 52.8674C8.22409 52.4289 8.53355 51.5263 8.53355 50.6237ZM5.92887 58.0509V59.4951H3.24682V58.0509C3.24682 56.9678 3.73681 56.3747 4.58784 56.3747C5.41309 56.4004 5.92887 56.9678 5.92887 58.0509ZM8.45618 55.4205L6.44465 56.8389C6.13518 56.0136 5.49046 55.5236 4.56206 55.5236C3.27261 55.5236 2.47315 56.452 2.47315 58.0251V60.3461H8.45618V59.4951H6.65096V58.0251C6.65096 57.8962 6.65096 57.7673 6.62517 57.6383L8.45618 56.3489V55.4205ZM7.70831 67.0255H5.77414V64.034H5.05205V67.0255H3.22103V63.6729H2.47315V67.8765H8.45618V63.544H7.70831V67.0255ZM2.47315 71.2807L7.37305 73.4469L2.47315 75.5874V76.5158L8.45618 73.8853V73.0343L2.47315 70.4296V71.2807ZM2.47315 79.9973H6.93464L2.47315 83.582V84.2783H8.45618V83.4272H3.9947L8.45618 79.8426V79.1463H2.47315V79.9973ZM8.45618 87.8629H2.47315V88.714H8.45618V87.8629ZM7.70831 99.468H5.77414V96.4765H5.05205V99.468H3.22103V96.1154H2.47315V100.319H8.45618V95.9865H7.70831V99.468ZM7.70831 108.288H3.22103V106.689C3.22103 105.219 4.12364 104.265 5.46467 104.265C6.80569 104.265 7.70831 105.219 7.70831 106.689V108.288ZM8.45618 109.165V106.637C8.45618 104.729 7.24411 103.414 5.46467 103.414C3.68523 103.414 2.47315 104.729 2.47315 106.637V109.165H8.45618ZM7.75988 118.681V120.641H5.77414V118.681C5.77414 117.727 6.0836 117.211 6.7799 117.211C7.4762 117.211 7.75988 117.727 7.75988 118.681ZM3.16945 118.887C3.16945 118.01 3.50471 117.52 4.12364 117.52C4.74258 117.52 5.07784 118.01 5.07784 118.887V120.641H3.16945V118.887ZM5.36151 117.469C5.12941 117.004 4.691 116.669 4.02049 116.669C3.0663 116.669 2.47315 117.443 2.47315 118.81V121.492H8.45618V118.629C8.45618 117.108 7.86304 116.334 6.83148 116.334C6.05781 116.36 5.54203 116.798 5.36151 117.469ZM8.53355 127.552C8.53355 125.979 7.63094 125.025 5.87729 125.025H2.47315V125.85H5.82571C7.14095 125.85 7.73409 126.469 7.73409 127.552C7.73409 128.635 7.14095 129.228 5.82571 129.228H2.47315V130.079H5.87729C7.60515 130.079 8.53355 129.125 8.53355 127.552ZM8.45618 136.785V132.71H7.70831V135.934H2.47315V136.785H8.45618ZM8.53355 142.097C8.53355 141.169 8.19829 140.369 7.60515 139.828L7.06358 140.395C7.55357 140.859 7.78567 141.427 7.78567 142.071C7.78567 143.412 6.80569 144.418 5.49046 144.418C4.17522 144.418 3.19524 143.412 3.19524 142.071C3.19524 141.427 3.42734 140.859 3.89154 140.395L3.34997 139.828C2.73104 140.369 2.42157 141.169 2.42157 142.097C2.42157 143.902 3.71102 145.269 5.46467 145.269C7.21832 145.269 8.53355 143.902 8.53355 142.097Z" fill="white"/>
</svg>
