<svg width="76" height="156" viewBox="0 0 76 156" fill="none" xmlns="http://www.w3.org/2000/svg">
<path d="M3.52708 150.552L3.53686 149.86C2.48926 149.976 1.60051 150.824 1.5815 152.17C1.56022 153.677 2.74511 154.732 4.39832 154.755C6.05922 154.779 7.27343 153.758 7.29471 152.251C7.31382 150.897 6.44939 150.024 5.23621 149.884L5.22644 150.576C5.91783 150.632 6.69585 151.089 6.67956 152.242C6.6611 153.549 5.52305 154.079 4.40809 154.063C3.30082 154.048 2.1782 153.486 2.19665 152.179C2.21283 151.033 3.0028 150.644 3.52708 150.552Z" fill="white"/>
<path d="M1.78742 145.213L7.28532 145.29L7.33581 141.715L6.72066 141.706L6.67995 144.59L1.7972 144.521L1.78742 145.213Z" fill="white"/>
<path d="M5.62575 133.191L1.95792 133.139L1.94815 133.831L5.61598 133.883C6.50794 133.896 6.93203 134.363 6.91857 135.316C6.9051 136.27 6.46798 136.725 5.57602 136.713L1.90819 136.661L1.89841 137.353L5.56624 137.405C6.68889 137.42 7.51298 136.794 7.53372 135.325C7.55446 133.856 6.7484 133.207 5.62575 133.191Z" fill="white"/>
<path d="M3.46625 124.36C2.61273 124.348 2.0726 125.018 2.05675 126.14L2.02548 128.355L7.52338 128.432L7.55682 126.064C7.57289 124.926 6.99871 124.195 5.98371 124.181C5.16095 124.169 4.71571 124.655 4.6076 125.23L4.59222 125.23C4.44484 124.774 4.14291 124.37 3.46625 124.36ZM4.33437 127.695L2.6504 127.671L2.67451 125.964C2.68341 125.334 3.03356 125.046 3.53337 125.054C4.03318 125.061 4.36847 125.281 4.35739 126.065L4.33437 127.695ZM4.94952 127.704L4.97634 125.805C4.98449 125.228 5.38186 124.864 5.97394 124.873C6.48913 124.88 6.95514 125.102 6.94265 125.986L6.918 127.732L4.94952 127.704Z" fill="white"/>
<path d="M7.72358 114.255L7.7517 112.264C7.7731 110.749 6.80968 109.805 5.04113 109.78C3.27257 109.755 2.27519 110.671 2.2538 112.186L2.22568 114.177L7.72358 114.255ZM2.8506 113.494L2.86895 112.195C2.88871 110.795 3.95484 110.456 5.03135 110.472C6.10787 110.487 7.15632 110.855 7.13655 112.255L7.1182 113.554L2.8506 113.494Z" fill="white"/>
<path d="M4.70923 104.417L2.97912 104.393L3.02418 101.202L2.40903 101.193L2.3542 105.076L7.8521 105.154L7.90824 101.179L7.29309 101.17L7.24672 104.453L5.32438 104.426L5.36423 101.604L4.74908 101.595L4.70923 104.417Z" fill="white"/>
<path d="M2.55228 91.0489L8.05018 91.1265L8.05996 90.4345L2.56206 90.3568L2.55228 91.0489Z" fill="white"/>
<path d="M8.12897 85.5476L8.13874 84.8555L3.62508 84.7918L3.62529 84.7764L8.17772 82.0951L8.18966 81.2492L2.69176 81.1716L2.68199 81.8636L7.21103 81.9276L7.21081 81.943L2.64301 84.6241L2.63107 85.4699L8.12897 85.5476Z" fill="white"/>
<path d="M2.75446 76.7321L8.2795 74.8874L8.29025 74.1261L2.8195 72.1261L2.80918 72.8566L7.59289 74.4931L7.59278 74.5008L2.76477 76.0016L2.75446 76.7321Z" fill="white"/>
<path d="M5.2372 67.0294L3.50709 67.0049L3.55215 63.8138L2.937 63.8051L2.88216 67.6883L8.38007 67.7659L8.4362 63.7905L7.82105 63.7818L7.77469 67.0652L5.85234 67.038L5.8922 64.216L5.27705 64.2074L5.2372 67.0294Z" fill="white"/>
<path d="M8.5019 59.1379L8.51168 58.4459L6.28945 58.4145L6.31171 56.8382C6.33136 55.4464 8.31552 55.9974 8.54957 55.7623L8.5601 55.0164L8.51397 55.0157C8.41768 55.2989 6.26326 54.8225 6.00763 56.0417L5.99225 56.0415C5.84704 55.4319 5.41407 55.0489 4.62206 55.0377C3.64551 55.0239 3.0508 55.7461 3.03549 56.8303L3.004 59.0603L8.5019 59.1379ZM3.62892 58.3769L3.64836 57.0005C3.6564 56.4315 3.7357 55.7174 4.68918 55.7308C5.64266 55.7443 5.70177 56.4604 5.69373 57.0294L5.6743 58.4058L3.62892 58.3769Z" fill="white"/>
<path d="M5.44635 48.4058C5.23502 49.2104 5.1267 49.8011 4.39621 49.7907C3.94254 49.7843 3.64851 49.3649 3.65948 48.5883C3.67175 47.7194 4.06208 47.3096 4.80167 47.22L4.81145 46.528C3.67212 46.6042 3.06083 47.4108 3.04433 48.5796C3.02717 49.7945 3.59443 50.4716 4.46333 50.4839C5.53215 50.499 5.83056 49.5187 6.03441 48.6987C6.33629 47.4724 6.48045 47.0668 7.23401 47.0775C7.72613 47.0844 8.15965 47.4289 8.14618 48.3824C8.1299 49.5358 7.53899 49.989 6.78435 50.0552L6.77457 50.7472C8.03672 50.6882 8.74298 49.6906 8.76133 48.3911C8.78099 46.9993 8.04348 46.3967 7.24379 46.3854C5.99042 46.3677 5.7714 47.1722 5.44635 48.4058Z" fill="white"/>
<path d="M3.24949 41.6762L8.74739 41.7538L8.75716 41.0618L3.25926 40.9842L3.24949 41.6762Z" fill="white"/>
<path d="M1.71163 33.4835L2.68351 33.8279L2.69057 33.3281L1.72195 32.753L1.71163 33.4835ZM8.96942 33.6552C8.99223 32.0404 7.8002 30.9469 6.14698 30.9235C4.49377 30.9002 3.27902 31.9598 3.25622 33.5745C3.23342 35.1893 4.41776 36.2828 6.07097 36.3061C7.72419 36.3295 8.94662 35.27 8.96942 33.6552ZM8.35427 33.6465C8.33473 35.0306 7.26491 35.6308 6.08075 35.6141C4.89658 35.5973 3.85183 34.9673 3.87137 33.5832C3.89092 32.1991 4.95305 31.5989 6.13721 31.6156C7.32137 31.6323 8.37382 32.2624 8.35427 33.6465Z" fill="white"/>
<path d="M8.96572 26.2929L8.97549 25.6008L4.46183 25.5371L4.46204 25.5217L9.01447 22.8403L9.02642 21.9945L3.52851 21.9169L3.51874 22.6089L8.04778 22.6729L8.04756 22.6882L3.47976 25.3694L3.46782 26.2152L8.96572 26.2929Z" fill="white"/>
<path d="M30.7017 10.2005V15.9826H24.6674V30.0015C24.6674 31.8016 25.5915 32.6744 27.3855 32.6744C28.3097 32.6744 29.4514 32.4562 30.7017 32.0743V37.8019C29.2339 38.511 27.4943 38.8928 25.4284 38.8928C20.4813 38.8928 17.7088 37.0382 17.7088 31.5288V15.9826H13.7402V10.2005H17.7088V2.9456H24.6674V10.2005H30.7017Z" fill="#FEFFFE"/>
<path d="M35.3859 0H42.3989V6.70942H35.3859V0ZM35.3859 10.2005H42.3989V38.5656H35.3859V10.2005Z" fill="#FEFFFE"/>
<path d="M32.2783 48.7271C33.1481 48.7271 33.8005 48.7816 34.2354 48.8362V55.5456C33.8548 55.4911 33.2568 55.4365 32.4957 55.4365C29.8319 55.4365 27.4943 56.3093 25.5915 58.0548C23.6888 59.8004 22.6559 62.0914 22.3841 64.9279V77.5285H15.3711V49.1635H22.3841V56.3093C23.6344 51.8909 27.2768 48.7271 32.2783 48.7271Z" fill="#FEFFFE"/>
<path d="M51.343 78.074C47.8093 78.074 44.5475 76.7648 41.6662 74.2011C38.7849 71.5828 37.3715 67.9826 37.3715 63.346C37.3715 58.7094 38.7849 55.1092 41.6662 52.5455C44.5475 49.9271 47.8093 48.618 51.343 48.618C55.6921 48.618 58.8995 50.9636 60.0412 53.2H60.4217V49.1635H67.3803V77.5285H60.4217V73.492H60.0412C58.8995 75.7284 55.6921 78.074 51.343 78.074ZM46.559 69.619C48.1899 71.0919 50.0926 71.8555 52.3215 71.8555C54.5504 71.8555 56.4532 71.0919 58.0841 69.619C59.7694 68.1462 60.5848 66.0189 60.5848 63.346C60.5848 60.6731 59.7694 58.5458 58.0841 57.073C56.4532 55.6002 54.5504 54.8365 52.3215 54.8365C50.0926 54.8365 48.1899 55.6002 46.559 57.073C44.9824 58.5458 44.167 60.6731 44.167 63.346C44.167 66.0189 44.9824 68.1462 46.559 69.619Z" fill="#FEFFFE"/>
<path d="M51.6318 87.581C54.7849 87.581 57.3943 88.6719 59.5145 90.7993C61.6347 92.9267 62.6676 96.1996 62.6676 100.618V116.492H55.7091V100.727C55.7091 96.3632 53.4802 93.7449 49.6203 93.7449C45.8692 93.7449 43.4229 96.636 42.553 100.182V116.492H35.5401V100.727C35.5401 96.5269 33.0394 93.7449 29.397 93.7449C25.4828 93.7449 23.0364 96.4723 22.3841 100.182V116.492H15.3711V88.1264H22.3841V93.9086C22.4928 92.654 23.3083 91.2903 24.8848 89.8175C26.4614 88.3447 28.5272 87.581 31.0823 87.581C35.2139 87.581 39.2368 89.872 41.2483 94.1813C41.8463 92.7085 42.9879 91.2357 44.7819 89.7629C46.576 88.2901 48.8592 87.581 51.6318 87.581Z" fill="#FEFFFE"/>
<path d="M68.2484 77.9259H75.2613V84.6354H68.2484V77.9259ZM68.2484 88.1264H75.2613V116.492H68.2484V88.1264Z" fill="#FEFFFE"/>
<path d="M34.779 133.581L28.9621 135.163C28.0379 133.144 26.6788 132.162 24.8848 132.162C23.0908 132.162 21.6773 133.199 21.6773 134.726C21.6773 135.981 22.6015 136.963 24.3955 137.672L27.7117 138.817C30.2668 139.745 31.5716 140.345 33.2568 141.654C34.9965 142.908 35.7576 144.763 35.7576 147.218C35.7576 150 34.7246 152.127 32.6045 153.709C30.4843 155.236 27.9292 156 24.8304 156C19.1222 156 14.9906 153.109 13.849 148.145L19.3941 146.399C20.2095 148.745 22.1666 150.382 24.8304 150.382C27.1681 150.382 28.9621 149.072 28.9621 147.327C28.9621 146.072 27.9835 145.09 26.0264 144.327L22.7646 143.181C17.5457 141.272 14.9362 138.435 14.9362 134.672C14.9362 132.217 15.8604 130.253 17.7632 128.78C19.6659 127.308 21.9492 126.544 24.613 126.544C29.6145 126.544 33.2025 129.217 34.779 133.581Z" fill="#FEFFFE"/>
<path d="M50.4906 156C47.6093 156 45.1629 154.964 43.0427 152.836C40.9769 150.709 39.944 147.6 39.944 143.454V127.089H46.9569V143.017C46.9569 147.6 49.5664 149.836 53.0457 149.836C54.9484 149.836 56.5793 149.127 57.8297 147.763C59.08 146.399 59.7868 145.09 59.8411 143.836V127.089H66.8541V155.454H59.8411V149.891C59.4606 151.145 58.4277 152.454 56.7424 153.873C55.0571 155.291 52.9913 156 50.4906 156Z" fill="#FEFFFE"/>
<path d="M52.9987 121.944H60.9791L55.0197 130.733H49.9932L52.9987 121.944Z" fill="#E9B418"/>
</svg>
